<mxfile host="app.diagrams.net" modified="2024-06-14T10:26:07.021Z" agent="Mozilla/5.0 (Windows NT 10.0; Win64; x64) AppleWebKit/537.36 (KHTML, like Gecko) Chrome/124.0.0.0 Safari/537.36" etag="E-zJCcHYvVE8zNmJ2ORR" version="24.5.4" type="device">
  <diagram name="Trang-1" id="TK41pFTZRSFjJTch-Agj">
    <mxGraphModel dx="2118" dy="1188" grid="0" gridSize="10" guides="1" tooltips="1" connect="1" arrows="1" fold="1" page="0" pageScale="1" pageWidth="827" pageHeight="1169" background="none" math="0" shadow="0">
      <root>
        <mxCell id="0" />
        <mxCell id="1" parent="0" />
        <mxCell id="dIp7gTt4IQ1MrBk9j1CA-1" value="Quản lý nhân viên" style="rounded=0;whiteSpace=wrap;html=1;fillColor=#b1ddf0;strokeColor=#10739e;strokeWidth=2;fontSize=16;" vertex="1" parent="1">
          <mxGeometry x="59" y="218" width="120" height="60" as="geometry" />
        </mxCell>
        <mxCell id="dIp7gTt4IQ1MrBk9j1CA-2" value="Quản lý quản bia" style="rounded=0;whiteSpace=wrap;html=1;fillColor=#fa6800;strokeColor=#C73500;fontColor=#000000;strokeWidth=2;fontSize=16;" vertex="1" parent="1">
          <mxGeometry x="46" width="148" height="40" as="geometry" />
        </mxCell>
        <mxCell id="dIp7gTt4IQ1MrBk9j1CA-3" value="Quản lý bàn" style="rounded=0;whiteSpace=wrap;html=1;fillColor=#b1ddf0;strokeColor=#10739e;strokeWidth=2;fontSize=16;" vertex="1" parent="1">
          <mxGeometry x="380" y="218" width="120" height="60" as="geometry" />
        </mxCell>
        <mxCell id="dIp7gTt4IQ1MrBk9j1CA-4" value="Quản lý sản phẩm (đồ ăn uống)" style="rounded=0;whiteSpace=wrap;html=1;fillColor=#b1ddf0;strokeColor=#10739e;strokeWidth=2;fontSize=16;" vertex="1" parent="1">
          <mxGeometry x="540" y="218" width="120" height="60" as="geometry" />
        </mxCell>
        <mxCell id="dIp7gTt4IQ1MrBk9j1CA-5" value="Quản lý hóa đơn" style="rounded=0;whiteSpace=wrap;html=1;fillColor=#b1ddf0;strokeColor=#10739e;strokeWidth=2;fontSize=16;" vertex="1" parent="1">
          <mxGeometry x="220" y="219" width="120" height="60" as="geometry" />
        </mxCell>
        <mxCell id="dIp7gTt4IQ1MrBk9j1CA-6" value="Xóa nhân viên" style="rounded=0;whiteSpace=wrap;html=1;fillColor=#cce5ff;strokeColor=#36393d;strokeWidth=2;fontSize=16;" vertex="1" parent="1">
          <mxGeometry x="79" y="479" width="120" height="60" as="geometry" />
        </mxCell>
        <mxCell id="dIp7gTt4IQ1MrBk9j1CA-7" value="Thêm nhân viên" style="rounded=0;whiteSpace=wrap;html=1;fillColor=#cce5ff;strokeColor=#36393d;strokeWidth=2;fontSize=16;" vertex="1" parent="1">
          <mxGeometry x="79" y="319" width="120" height="60" as="geometry" />
        </mxCell>
        <mxCell id="dIp7gTt4IQ1MrBk9j1CA-9" value="Admin" style="rounded=0;whiteSpace=wrap;html=1;fillColor=#fad9d5;strokeColor=#ae4132;strokeWidth=2;fontSize=16;" vertex="1" parent="1">
          <mxGeometry x="302" y="100" width="120" height="60" as="geometry" />
        </mxCell>
        <mxCell id="dIp7gTt4IQ1MrBk9j1CA-10" value="Thêm hóa đơn" style="rounded=0;whiteSpace=wrap;html=1;fillColor=#cce5ff;strokeColor=#36393d;strokeWidth=2;fontSize=16;" vertex="1" parent="1">
          <mxGeometry x="240" y="319" width="120" height="60" as="geometry" />
        </mxCell>
        <mxCell id="dIp7gTt4IQ1MrBk9j1CA-11" value="Xuất hóa đơn" style="rounded=0;whiteSpace=wrap;html=1;fillColor=#cce5ff;strokeColor=#36393d;strokeWidth=2;fontSize=16;" vertex="1" parent="1">
          <mxGeometry x="240" y="559" width="120" height="60" as="geometry" />
        </mxCell>
        <mxCell id="dIp7gTt4IQ1MrBk9j1CA-12" value="Sửa hóa đơn" style="rounded=0;whiteSpace=wrap;html=1;fillColor=#cce5ff;strokeColor=#36393d;strokeWidth=2;fontSize=16;" vertex="1" parent="1">
          <mxGeometry x="240" y="399" width="120" height="60" as="geometry" />
        </mxCell>
        <mxCell id="dIp7gTt4IQ1MrBk9j1CA-13" value="Xóa hóa đơn" style="rounded=0;whiteSpace=wrap;html=1;fillColor=#cce5ff;strokeColor=#36393d;strokeWidth=2;fontSize=16;" vertex="1" parent="1">
          <mxGeometry x="240" y="479" width="120" height="60" as="geometry" />
        </mxCell>
        <mxCell id="dIp7gTt4IQ1MrBk9j1CA-14" value="Oder sản phẩm vào bàn" style="rounded=0;whiteSpace=wrap;html=1;fillColor=#cce5ff;strokeColor=#36393d;strokeWidth=2;fontSize=16;" vertex="1" parent="1">
          <mxGeometry x="400" y="319" width="120" height="60" as="geometry" />
        </mxCell>
        <mxCell id="dIp7gTt4IQ1MrBk9j1CA-15" value="Tính tiền bàn" style="rounded=0;whiteSpace=wrap;html=1;fillColor=#cce5ff;strokeColor=#36393d;strokeWidth=2;fontSize=16;" vertex="1" parent="1">
          <mxGeometry x="400" y="399" width="120" height="60" as="geometry" />
        </mxCell>
        <mxCell id="dIp7gTt4IQ1MrBk9j1CA-16" value="Thêm sản phẩm" style="rounded=0;whiteSpace=wrap;html=1;fillColor=#cce5ff;strokeColor=#36393d;strokeWidth=2;fontSize=16;" vertex="1" parent="1">
          <mxGeometry x="560" y="319" width="120" height="60" as="geometry" />
        </mxCell>
        <mxCell id="dIp7gTt4IQ1MrBk9j1CA-18" value="Sửa sản phẩm" style="rounded=0;whiteSpace=wrap;html=1;fillColor=#cce5ff;strokeColor=#36393d;strokeWidth=2;fontSize=16;" vertex="1" parent="1">
          <mxGeometry x="560" y="399" width="120" height="60" as="geometry" />
        </mxCell>
        <mxCell id="dIp7gTt4IQ1MrBk9j1CA-19" value="Xóa sản phẩm" style="rounded=0;whiteSpace=wrap;html=1;fillColor=#cce5ff;strokeColor=#36393d;strokeWidth=2;fontSize=16;" vertex="1" parent="1">
          <mxGeometry x="560" y="479" width="120" height="60" as="geometry" />
        </mxCell>
        <mxCell id="dIp7gTt4IQ1MrBk9j1CA-21" value="Xem tổng doanh thu nhân viên" style="rounded=0;whiteSpace=wrap;html=1;fillColor=#cce5ff;strokeColor=#36393d;strokeWidth=2;fontSize=16;" vertex="1" parent="1">
          <mxGeometry x="79" y="560" width="120" height="60" as="geometry" />
        </mxCell>
        <mxCell id="dIp7gTt4IQ1MrBk9j1CA-22" value="Sửa nhân viên" style="rounded=0;whiteSpace=wrap;html=1;fillColor=#cce5ff;strokeColor=#36393d;strokeWidth=2;fontSize=16;" vertex="1" parent="1">
          <mxGeometry x="79" y="400" width="120" height="60" as="geometry" />
        </mxCell>
        <mxCell id="dIp7gTt4IQ1MrBk9j1CA-23" value="Nhân Viên" style="rounded=0;whiteSpace=wrap;html=1;fillColor=#fad9d5;strokeColor=#ae4132;strokeWidth=2;fontSize=16;" vertex="1" parent="1">
          <mxGeometry x="-184" y="98" width="120" height="60" as="geometry" />
        </mxCell>
        <mxCell id="dIp7gTt4IQ1MrBk9j1CA-25" value="Quản lý hóa đơn" style="rounded=0;whiteSpace=wrap;html=1;fillColor=#b1ddf0;strokeColor=#10739e;strokeWidth=2;fontSize=16;" vertex="1" parent="1">
          <mxGeometry x="-260" y="218" width="120" height="60" as="geometry" />
        </mxCell>
        <mxCell id="dIp7gTt4IQ1MrBk9j1CA-26" value="Quản lý bàn" style="rounded=0;whiteSpace=wrap;html=1;fillColor=#b1ddf0;strokeColor=#10739e;strokeWidth=2;fontSize=16;" vertex="1" parent="1">
          <mxGeometry x="-100" y="217" width="120" height="60" as="geometry" />
        </mxCell>
        <mxCell id="dIp7gTt4IQ1MrBk9j1CA-27" value="Oder sản phẩm vào bàn" style="rounded=0;whiteSpace=wrap;html=1;fillColor=#cce5ff;strokeColor=#36393d;strokeWidth=2;fontSize=16;" vertex="1" parent="1">
          <mxGeometry x="-80" y="319" width="120" height="60" as="geometry" />
        </mxCell>
        <mxCell id="dIp7gTt4IQ1MrBk9j1CA-28" value="Xuất hóa đơn" style="rounded=0;whiteSpace=wrap;html=1;fillColor=#cce5ff;strokeColor=#36393d;strokeWidth=2;fontSize=16;" vertex="1" parent="1">
          <mxGeometry x="-242" y="319" width="120" height="60" as="geometry" />
        </mxCell>
        <mxCell id="dIp7gTt4IQ1MrBk9j1CA-30" value="" style="endArrow=none;html=1;rounded=0;fontSize=12;strokeWidth=2;entryX=0;entryY=1;entryDx=0;entryDy=0;exitX=0;exitY=0.5;exitDx=0;exitDy=0;" edge="1" parent="1" source="dIp7gTt4IQ1MrBk9j1CA-28" target="dIp7gTt4IQ1MrBk9j1CA-25">
          <mxGeometry width="50" height="50" relative="1" as="geometry">
            <mxPoint x="-270" y="350" as="sourcePoint" />
            <mxPoint x="-220" y="300" as="targetPoint" />
            <Array as="points">
              <mxPoint x="-260" y="350" />
            </Array>
          </mxGeometry>
        </mxCell>
        <mxCell id="dIp7gTt4IQ1MrBk9j1CA-31" value="" style="endArrow=none;html=1;rounded=0;fontSize=12;strokeWidth=2;entryX=0;entryY=1;entryDx=0;entryDy=0;exitX=0;exitY=0.5;exitDx=0;exitDy=0;" edge="1" parent="1">
          <mxGeometry width="50" height="50" relative="1" as="geometry">
            <mxPoint x="-82" y="350" as="sourcePoint" />
            <mxPoint x="-100" y="279" as="targetPoint" />
            <Array as="points">
              <mxPoint x="-100" y="351" />
            </Array>
          </mxGeometry>
        </mxCell>
        <mxCell id="dIp7gTt4IQ1MrBk9j1CA-32" value="" style="endArrow=none;html=1;rounded=0;fontSize=12;strokeWidth=2;entryX=0;entryY=1;entryDx=0;entryDy=0;exitX=0;exitY=0.5;exitDx=0;exitDy=0;" edge="1" parent="1">
          <mxGeometry width="50" height="50" relative="1" as="geometry">
            <mxPoint x="77" y="350" as="sourcePoint" />
            <mxPoint x="59" y="279" as="targetPoint" />
            <Array as="points">
              <mxPoint x="59" y="351" />
            </Array>
          </mxGeometry>
        </mxCell>
        <mxCell id="dIp7gTt4IQ1MrBk9j1CA-33" value="" style="endArrow=none;html=1;rounded=0;fontSize=12;strokeWidth=2;entryX=0;entryY=1;entryDx=0;entryDy=0;exitX=0;exitY=0.5;exitDx=0;exitDy=0;" edge="1" parent="1">
          <mxGeometry width="50" height="50" relative="1" as="geometry">
            <mxPoint x="238" y="350" as="sourcePoint" />
            <mxPoint x="220" y="279" as="targetPoint" />
            <Array as="points">
              <mxPoint x="220" y="351" />
            </Array>
          </mxGeometry>
        </mxCell>
        <mxCell id="dIp7gTt4IQ1MrBk9j1CA-34" value="" style="endArrow=none;html=1;rounded=0;fontSize=12;strokeWidth=2;entryX=0;entryY=1;entryDx=0;entryDy=0;exitX=0;exitY=0.5;exitDx=0;exitDy=0;" edge="1" parent="1">
          <mxGeometry width="50" height="50" relative="1" as="geometry">
            <mxPoint x="398" y="350" as="sourcePoint" />
            <mxPoint x="380" y="279" as="targetPoint" />
            <Array as="points">
              <mxPoint x="380" y="351" />
            </Array>
          </mxGeometry>
        </mxCell>
        <mxCell id="dIp7gTt4IQ1MrBk9j1CA-35" value="" style="endArrow=none;html=1;rounded=0;fontSize=12;strokeWidth=2;entryX=0;entryY=1;entryDx=0;entryDy=0;exitX=0;exitY=0.5;exitDx=0;exitDy=0;" edge="1" parent="1">
          <mxGeometry width="50" height="50" relative="1" as="geometry">
            <mxPoint x="560" y="350" as="sourcePoint" />
            <mxPoint x="542" y="279" as="targetPoint" />
            <Array as="points">
              <mxPoint x="542" y="351" />
            </Array>
          </mxGeometry>
        </mxCell>
        <mxCell id="dIp7gTt4IQ1MrBk9j1CA-37" value="" style="endArrow=none;html=1;rounded=0;fontSize=12;strokeWidth=2;entryX=0;entryY=1;entryDx=0;entryDy=0;exitX=0;exitY=0.5;exitDx=0;exitDy=0;" edge="1" parent="1" source="dIp7gTt4IQ1MrBk9j1CA-22">
          <mxGeometry width="50" height="50" relative="1" as="geometry">
            <mxPoint x="77" y="421" as="sourcePoint" />
            <mxPoint x="59" y="350" as="targetPoint" />
            <Array as="points">
              <mxPoint x="59" y="430" />
            </Array>
          </mxGeometry>
        </mxCell>
        <mxCell id="dIp7gTt4IQ1MrBk9j1CA-39" value="" style="endArrow=none;html=1;rounded=0;fontSize=12;strokeWidth=2;entryX=0;entryY=1;entryDx=0;entryDy=0;exitX=0;exitY=0.5;exitDx=0;exitDy=0;" edge="1" parent="1">
          <mxGeometry width="50" height="50" relative="1" as="geometry">
            <mxPoint x="79" y="510" as="sourcePoint" />
            <mxPoint x="59" y="430" as="targetPoint" />
            <Array as="points">
              <mxPoint x="59" y="510" />
            </Array>
          </mxGeometry>
        </mxCell>
        <mxCell id="dIp7gTt4IQ1MrBk9j1CA-40" value="" style="endArrow=none;html=1;rounded=0;fontSize=12;strokeWidth=2;entryX=0;entryY=1;entryDx=0;entryDy=0;exitX=0;exitY=0.5;exitDx=0;exitDy=0;" edge="1" parent="1">
          <mxGeometry width="50" height="50" relative="1" as="geometry">
            <mxPoint x="79" y="584" as="sourcePoint" />
            <mxPoint x="59" y="504" as="targetPoint" />
            <Array as="points">
              <mxPoint x="59" y="584" />
            </Array>
          </mxGeometry>
        </mxCell>
        <mxCell id="dIp7gTt4IQ1MrBk9j1CA-41" value="" style="endArrow=none;html=1;rounded=0;fontSize=12;strokeWidth=2;entryX=0;entryY=1;entryDx=0;entryDy=0;exitX=0;exitY=0.5;exitDx=0;exitDy=0;" edge="1" parent="1">
          <mxGeometry width="50" height="50" relative="1" as="geometry">
            <mxPoint x="240" y="430" as="sourcePoint" />
            <mxPoint x="220" y="350" as="targetPoint" />
            <Array as="points">
              <mxPoint x="220" y="430" />
            </Array>
          </mxGeometry>
        </mxCell>
        <mxCell id="dIp7gTt4IQ1MrBk9j1CA-42" value="" style="endArrow=none;html=1;rounded=0;fontSize=12;strokeWidth=2;entryX=0;entryY=1;entryDx=0;entryDy=0;exitX=0;exitY=0.5;exitDx=0;exitDy=0;" edge="1" parent="1">
          <mxGeometry width="50" height="50" relative="1" as="geometry">
            <mxPoint x="240" y="510" as="sourcePoint" />
            <mxPoint x="220" y="430" as="targetPoint" />
            <Array as="points">
              <mxPoint x="220" y="510" />
            </Array>
          </mxGeometry>
        </mxCell>
        <mxCell id="dIp7gTt4IQ1MrBk9j1CA-43" value="" style="endArrow=none;html=1;rounded=0;fontSize=12;strokeWidth=2;entryX=0;entryY=1;entryDx=0;entryDy=0;exitX=0;exitY=0.5;exitDx=0;exitDy=0;" edge="1" parent="1">
          <mxGeometry width="50" height="50" relative="1" as="geometry">
            <mxPoint x="240" y="590" as="sourcePoint" />
            <mxPoint x="220" y="510" as="targetPoint" />
            <Array as="points">
              <mxPoint x="220" y="590" />
            </Array>
          </mxGeometry>
        </mxCell>
        <mxCell id="dIp7gTt4IQ1MrBk9j1CA-44" value="" style="endArrow=none;html=1;rounded=0;fontSize=12;strokeWidth=2;entryX=0;entryY=1;entryDx=0;entryDy=0;exitX=0;exitY=0.5;exitDx=0;exitDy=0;" edge="1" parent="1">
          <mxGeometry width="50" height="50" relative="1" as="geometry">
            <mxPoint x="400" y="430" as="sourcePoint" />
            <mxPoint x="380" y="350" as="targetPoint" />
            <Array as="points">
              <mxPoint x="380" y="430" />
            </Array>
          </mxGeometry>
        </mxCell>
        <mxCell id="dIp7gTt4IQ1MrBk9j1CA-45" value="" style="endArrow=none;html=1;rounded=0;fontSize=12;strokeWidth=2;entryX=0;entryY=1;entryDx=0;entryDy=0;exitX=0;exitY=0.5;exitDx=0;exitDy=0;" edge="1" parent="1">
          <mxGeometry width="50" height="50" relative="1" as="geometry">
            <mxPoint x="560" y="430" as="sourcePoint" />
            <mxPoint x="540" y="350" as="targetPoint" />
            <Array as="points">
              <mxPoint x="540" y="430" />
            </Array>
          </mxGeometry>
        </mxCell>
        <mxCell id="dIp7gTt4IQ1MrBk9j1CA-46" value="" style="endArrow=none;html=1;rounded=0;fontSize=12;strokeWidth=2;entryX=0;entryY=1;entryDx=0;entryDy=0;exitX=0;exitY=0.5;exitDx=0;exitDy=0;" edge="1" parent="1">
          <mxGeometry width="50" height="50" relative="1" as="geometry">
            <mxPoint x="560" y="510" as="sourcePoint" />
            <mxPoint x="540" y="430" as="targetPoint" />
            <Array as="points">
              <mxPoint x="540" y="510" />
            </Array>
          </mxGeometry>
        </mxCell>
        <mxCell id="dIp7gTt4IQ1MrBk9j1CA-48" value="" style="endArrow=classic;startArrow=classic;html=1;rounded=0;strokeWidth=2;entryX=0.5;entryY=0;entryDx=0;entryDy=0;exitX=0.5;exitY=0;exitDx=0;exitDy=0;" edge="1" parent="1" source="dIp7gTt4IQ1MrBk9j1CA-23" target="dIp7gTt4IQ1MrBk9j1CA-9">
          <mxGeometry width="50" height="50" relative="1" as="geometry">
            <mxPoint x="111" y="90" as="sourcePoint" />
            <mxPoint x="161" y="40" as="targetPoint" />
            <Array as="points">
              <mxPoint x="-124" y="70" />
              <mxPoint x="361" y="70" />
            </Array>
          </mxGeometry>
        </mxCell>
        <mxCell id="dIp7gTt4IQ1MrBk9j1CA-50" value="" style="endArrow=none;html=1;rounded=0;strokeWidth=2;entryX=0.5;entryY=1;entryDx=0;entryDy=0;" edge="1" parent="1" target="dIp7gTt4IQ1MrBk9j1CA-2">
          <mxGeometry width="50" height="50" relative="1" as="geometry">
            <mxPoint x="121" y="70" as="sourcePoint" />
            <mxPoint x="121" y="90" as="targetPoint" />
          </mxGeometry>
        </mxCell>
        <mxCell id="dIp7gTt4IQ1MrBk9j1CA-51" value="" style="endArrow=classic;startArrow=classic;html=1;rounded=0;entryX=0.5;entryY=0;entryDx=0;entryDy=0;exitX=0.5;exitY=0;exitDx=0;exitDy=0;strokeWidth=2;" edge="1" parent="1" source="dIp7gTt4IQ1MrBk9j1CA-25" target="dIp7gTt4IQ1MrBk9j1CA-26">
          <mxGeometry width="50" height="50" relative="1" as="geometry">
            <mxPoint x="-200" y="199" as="sourcePoint" />
            <mxPoint x="-40" y="198" as="targetPoint" />
            <Array as="points">
              <mxPoint x="-200" y="181" />
              <mxPoint x="-40" y="181" />
            </Array>
          </mxGeometry>
        </mxCell>
        <mxCell id="dIp7gTt4IQ1MrBk9j1CA-52" value="" style="endArrow=none;html=1;rounded=0;strokeWidth=2;" edge="1" parent="1">
          <mxGeometry width="50" height="50" relative="1" as="geometry">
            <mxPoint x="-120" y="181" as="sourcePoint" />
            <mxPoint x="-120" y="161" as="targetPoint" />
          </mxGeometry>
        </mxCell>
        <mxCell id="dIp7gTt4IQ1MrBk9j1CA-53" value="" style="endArrow=none;html=1;rounded=0;strokeWidth=2;" edge="1" parent="1">
          <mxGeometry width="50" height="50" relative="1" as="geometry">
            <mxPoint x="361" y="180" as="sourcePoint" />
            <mxPoint x="361" y="160" as="targetPoint" />
          </mxGeometry>
        </mxCell>
        <mxCell id="dIp7gTt4IQ1MrBk9j1CA-54" value="" style="endArrow=classic;startArrow=classic;html=1;rounded=0;entryX=0.5;entryY=0;entryDx=0;entryDy=0;exitX=0.509;exitY=-0.048;exitDx=0;exitDy=0;strokeWidth=2;exitPerimeter=0;" edge="1" parent="1" source="dIp7gTt4IQ1MrBk9j1CA-5" target="dIp7gTt4IQ1MrBk9j1CA-3">
          <mxGeometry width="50" height="50" relative="1" as="geometry">
            <mxPoint x="281" y="198" as="sourcePoint" />
            <mxPoint x="441" y="197" as="targetPoint" />
            <Array as="points">
              <mxPoint x="281" y="180" />
              <mxPoint x="441" y="180" />
            </Array>
          </mxGeometry>
        </mxCell>
        <mxCell id="dIp7gTt4IQ1MrBk9j1CA-55" value="" style="endArrow=classic;startArrow=classic;html=1;rounded=0;exitX=0.5;exitY=0;exitDx=0;exitDy=0;strokeWidth=2;entryX=0.5;entryY=0;entryDx=0;entryDy=0;" edge="1" parent="1" source="dIp7gTt4IQ1MrBk9j1CA-1" target="dIp7gTt4IQ1MrBk9j1CA-4">
          <mxGeometry width="50" height="50" relative="1" as="geometry">
            <mxPoint x="120.20000000000005" y="196.53999999999996" as="sourcePoint" />
            <mxPoint x="600" y="210" as="targetPoint" />
            <Array as="points">
              <mxPoint x="119" y="181" />
              <mxPoint x="600" y="181" />
            </Array>
          </mxGeometry>
        </mxCell>
      </root>
    </mxGraphModel>
  </diagram>
</mxfile>
